<?xml version="1.0" encoding="UTF-8" standalone="no"?>
<!-- Created with Inkscape (http://www.inkscape.org/) -->

<svg
   version="1.1"
   id="svg5732"
   xml:space="preserve"
   width="1066.6667"
   height="1066.6667"
   viewBox="0 0 1066.6667 1066.6667"
   sodipodi:docname="slam-dunk-silhouette-color.svg"
   inkscape:version="1.1.2 (b8e25be833, 2022-02-05)"
   xmlns:inkscape="http://www.inkscape.org/namespaces/inkscape"
   xmlns:sodipodi="http://sodipodi.sourceforge.net/DTD/sodipodi-0.dtd"
   xmlns="http://www.w3.org/2000/svg"
   xmlns:svg="http://www.w3.org/2000/svg"><defs
     id="defs5736"><clipPath
       clipPathUnits="userSpaceOnUse"
       id="clipPath5746"><path
         d="M 0,800 H 800 V 0 H 0 Z"
         id="path5744" /></clipPath></defs><sodipodi:namedview
     id="namedview5734"
     pagecolor="#ffffff"
     bordercolor="#666666"
     borderopacity="1.0"
     inkscape:pageshadow="2"
     inkscape:pageopacity="0.0"
     inkscape:pagecheckerboard="0"
     showgrid="false"
     inkscape:zoom="0.77906244"
     inkscape:cx="533.33337"
     inkscape:cy="533.33337"
     inkscape:window-width="1920"
     inkscape:window-height="1018"
     inkscape:window-x="-8"
     inkscape:window-y="-8"
     inkscape:window-maximized="1"
     inkscape:current-layer="g5738" /><g
     id="g5738"
     inkscape:groupmode="layer"
     inkscape:label="slam-dunk-silhouette-color"
     transform="matrix(1.3333333,0,0,-1.3333333,0,1066.6667)"><g
       id="g5740"><g
         id="g5742"
         clip-path="url(#clipPath5746)"><path
           d="m 705.37,260.578 c -0.337,0.629 -1.379,1.496 -2.838,2.447 l -1.683,-15.816 c 3.669,3.289 6.273,10.1 4.521,13.369"
           style="fill:#ae0a22;fill-opacity:1;fill-rule:nonzero;stroke:none"
           id="path5748" /><path
           d="m 560.208,691.296 c 0.184,3.431 0.174,6.466 -0.073,8.838 -0.376,3.59 -0.811,8.66 -0.967,11.266 -0.156,2.604 -0.806,5.676 -1.442,6.826 -0.637,1.149 -1.052,2.456 -0.921,2.903 0.13,0.448 -0.751,1.882 -1.959,3.185 -1.207,1.305 -3.215,4.644 -4.46,7.421 -1.74,3.884 -4.287,7.863 -7.212,11.392 l -45.352,-47.619 z"
           style="fill:#0097de;fill-opacity:1;fill-rule:nonzero;stroke:none"
           id="path5750" /><path
           d="m 543.174,743.127 c -1.903,2.295 -3.964,4.4 -6.074,6.159 -5.112,4.257 -7.783,5.671 -15.975,8.458 -6.95,2.363 -16.927,2.859 -24.136,1.196 -1.105,-0.254 -2.218,-0.578 -3.331,-0.962 l 4.164,-62.47 z"
           style="fill:#008dde;fill-opacity:1;fill-rule:nonzero;stroke:none"
           id="path5752" /><path
           d="m 493.658,757.978 c -11.027,-3.809 -22.09,-13.722 -27.377,-24.855 -3.048,-6.42 -3.35,-7.802 -3.764,-17.217 -0.214,-4.814 -0.202,-8.055 0.102,-10.73 l 35.203,-9.668 z"
           style="fill:#169ee2;fill-opacity:1;fill-rule:nonzero;stroke:none"
           id="path5754" /><path
           d="m 698.444,245.672 c 0.827,0.316 1.639,0.851 2.405,1.537 l 1.683,15.816 c -2.686,1.754 -6.789,3.801 -10.556,5.213 l 0.339,-23.715 c 2.986,0.428 5.39,0.87 6.129,1.149"
           style="fill:#ac8c98;fill-opacity:1;fill-rule:nonzero;stroke:none"
           id="path5756" /><path
           d="m 462.619,705.176 c 0.185,-1.639 0.481,-3.067 0.901,-4.512 1.737,-5.979 7.14,-14.619 12.06,-19.285 1.661,-1.574 4.097,-3.303 6.857,-4.946 l 15.385,19.075 z"
           style="fill:#74e0e0;fill-opacity:1;fill-rule:nonzero;stroke:none"
           id="path5758" /><path
           d="m 554.786,657.865 c 2.726,10.189 4.89,23.479 5.422,33.431 l -62.386,4.212 z"
           style="fill:#009be2;fill-opacity:1;fill-rule:nonzero;stroke:none"
           id="path5760" /><path
           d="m 524.632,577.843 c 7.138,13.523 13.92,31.254 22,56.921 1.262,4.004 3.45,9.943 4.864,13.196 1.139,2.62 2.255,6.04 3.29,9.905 l -56.964,37.643 -4.918,-24.147 c 1.035,-0.388 2.046,-0.731 3.01,-1.015 6.48,-1.905 21.892,-1.898 26.91,0.012 6.774,2.578 6.627,2.594 8.104,-0.94 2.861,-6.846 2.77,-8.949 -0.562,-13.332 -1.686,-2.216 -5.265,-7.716 -7.951,-12.222 -8.649,-14.507 -19.567,-28.669 -22.103,-28.669 -0.48,0 -2.166,0.593 -3.745,1.315 -3.602,1.652 -8.661,2.95 -14.066,3.77 l -14.265,-70.046 z"
           style="fill:#14b4ec;fill-opacity:1;fill-rule:nonzero;stroke:none"
           id="path5762" /><path
           d="m 482.501,620.28 c -7.508,1.14 -15.684,1.358 -21.565,0.311 -5.837,-1.039 -15.712,-5.892 -19.759,-9.708 -1.357,-1.281 -3.302,-4.106 -4.323,-6.28 -1.164,-2.475 -3.182,-4.662 -6.833,-7.179 l 38.215,-47.19 z"
           style="fill:#67d7ef;fill-opacity:1;fill-rule:nonzero;stroke:none"
           id="path5764" /><path
           d="m 482.437,676.433 c 3.278,-1.949 7.014,-3.774 10.467,-5.072 l 4.918,24.147 z"
           style="fill:#67d7ef;fill-opacity:1;fill-rule:nonzero;stroke:none"
           id="path5766" /><path
           d="m 417.929,584.149 2.405,7.589 c -3.574,-2.183 -4.31,-4.499 -2.405,-7.589"
           style="fill:#dcf07c;fill-opacity:1;fill-rule:nonzero;stroke:none"
           id="path5768" /><path
           d="m 406.556,548.271 c -0.323,-0.08 -0.652,-0.16 -0.993,-0.242 -12.35,-2.957 -20.745,-7.51 -28.813,-15.625 -0.583,-0.587 -1.206,-1.222 -1.849,-1.882 l 21.529,-14.196 z"
           style="fill:#dcf07c;fill-opacity:1;fill-rule:nonzero;stroke:none"
           id="path5770" /><path
           d="m 499.155,527.85 c 1.604,7.64 5.536,20.666 7.198,23.005 0.78,1.099 4.048,5.423 7.263,9.61 3.891,5.067 7.497,10.711 11.016,17.378 l -56.396,-27.609 z"
           style="fill:#31bded;fill-opacity:1;fill-rule:nonzero;stroke:none"
           id="path5772" /><path
           d="m 76.659,430.63 -1.584,4.77 c -0.258,-0.126 -0.434,-0.298 -0.573,-0.518 -0.437,-0.691 -0.676,-1.667 -0.532,-2.167 0.171,-0.593 1.098,-1.3 2.689,-2.085"
           style="fill:#e65100;fill-opacity:1;fill-rule:nonzero;stroke:none"
           id="path5774" /><path
           d="m 80.959,407.5 c 0,-1.307 1.281,-1.817 3.894,-1.533 l -1.323,3.983 c -1.82,-1.061 -2.571,-1.815 -2.571,-2.45"
           style="fill:#e65100;fill-opacity:1;fill-rule:nonzero;stroke:none"
           id="path5776" /><path
           d="m 501.585,501.313 c -0.176,0.692 -0.354,1.342 -0.538,1.938 -1.498,4.844 -2.719,14.28 -2.588,20.023 0.022,0.976 0.281,2.595 0.696,4.576 l -30.919,22.384 z"
           style="fill:#8bebdb;fill-opacity:1;fill-rule:nonzero;stroke:none"
           id="path5778" /><path
           d="m 468.236,550.234 -38.215,47.19 c -2.226,-1.534 -5.058,-3.191 -8.676,-5.111 -0.36,-0.19 -0.695,-0.383 -1.011,-0.575 l -2.405,-7.589 c 0.176,-0.288 0.375,-0.582 0.597,-0.883 1.04,-1.408 1.517,-2.79 1.057,-3.073 -0.46,-0.285 -1.33,-2.016 -1.934,-3.846 -0.93,-2.819 -0.864,-3.769 0.434,-6.18 1.191,-2.208 1.325,-3.396 0.602,-5.302 -0.515,-1.351 -1.339,-2.456 -1.832,-2.456 -1.587,0 -3.057,-7.227 -1.783,-8.761 1.697,-2.045 -0.336,-3.36 -8.514,-5.377 L 396.43,516.326 Z"
           style="fill:#b7f3bb;fill-opacity:1;fill-rule:nonzero;stroke:none"
           id="path5780" /><path
           d="m 680.047,242.947 c 2.344,0.35 4.73,0.662 7.092,0.922 1.782,0.197 3.564,0.424 5.176,0.654 l -0.339,23.715 c -1.058,0.397 -2.089,0.744 -3.055,1.02 -3.224,0.924 -8.505,1.838 -14.546,2.605 l -0.029,-0.209 z"
           style="fill:#b16559;fill-opacity:1;fill-rule:nonzero;stroke:none"
           id="path5782" /><path
           d="m 374.901,530.522 c -3.499,-3.597 -7.657,-8.053 -9.983,-10.714 -2.222,-2.545 -3.73,-4.081 -5.469,-5.279 l 36.981,1.797 z"
           style="fill:#f2da4a;fill-opacity:1;fill-rule:nonzero;stroke:none"
           id="path5784" /><path
           d="m 157.42,415.572 c 3.258,2.742 12.404,4.387 29.114,5.245 7.159,0.367 14.071,0.807 20.158,1.27 l 11.469,35.337 c -3.714,-1.948 -9.265,-3.831 -19.796,-6.934 -5.256,-1.551 -12.118,-3.841 -15.249,-5.093 -5.262,-2.105 -18.418,-5.855 -27.072,-7.721 -2.002,-0.432 -8.555,-0.804 -14.562,-0.831 -5.12,-0.02 -12.272,-0.455 -17.218,-1.015 l 31.364,-21.554 c 0.645,0.404 1.245,0.837 1.792,1.296"
           style="fill:#fb6100;fill-opacity:1;fill-rule:nonzero;stroke:none"
           id="path5786" /><path
           d="m 396.43,516.326 33.576,-102.39 38.23,136.298 z"
           style="fill:#d8f890;fill-opacity:1;fill-rule:nonzero;stroke:none"
           id="path5788" /><path
           d="m 430.006,413.936 67.884,26.327 c 0.817,2.238 1.627,4.231 2.319,5.649 2.678,5.485 3.487,8.435 4.12,15.018 1.094,11.357 -0.263,30.49 -2.744,40.383 l -33.349,48.921 z"
           style="fill:#c5f5c1;fill-opacity:1;fill-rule:nonzero;stroke:none"
           id="path5790" /><path
           d="m 89.792,426.239 c 6.42,-1.681 9.083,-2.768 8.773,-3.575 -0.245,-0.638 0.426,-1.437 1.491,-1.775 3.402,-1.079 1.496,-2.627 -8.922,-7.247 -3.528,-1.563 -5.988,-2.75 -7.604,-3.692 l 1.323,-3.983 c 1.77,0.195 4.15,0.752 7.159,1.676 3.182,0.977 7.832,2.222 10.335,2.764 2.503,0.544 5.302,1.216 6.222,1.496 2.76,0.839 0.245,-2.859 -5.871,-8.631 -5.13,-4.84 -6.47,-7.53 -4.394,-8.813 1.109,-0.686 4.418,1.512 15.875,10.549 7.941,6.262 8.302,6.438 11.831,5.751 2.003,-0.39 7.139,-0.687 11.415,-0.661 7.64,0.047 13.955,1.509 18.203,4.178 l -31.364,21.554 c -0.856,-0.099 -1.648,-0.2 -2.349,-0.303 -20.867,-3.075 -23.36,-3.131 -37.644,-0.833 -6.022,0.968 -8.212,1.185 -9.196,0.706 l 1.584,-4.77 c 2.661,-1.309 7.181,-2.832 13.133,-4.391"
           style="fill:#f55a00;fill-opacity:1;fill-rule:nonzero;stroke:none"
           id="path5792" /><path
           d="m 289.377,440.709 c 6.258,2.269 14.953,5.616 19.322,7.437 4.37,1.821 10.513,3.744 13.652,4.272 9.576,1.612 23.397,6.131 33.707,11.025 2.145,1.018 3.869,1.81 5.261,2.406 l -42.103,31.82 c -6.196,-2.779 -11.196,-5.252 -15.175,-7.497 -2.939,-1.659 -5.496,-2.941 -7.923,-3.956 l -8.273,-46.075 c 0.509,0.192 1.02,0.383 1.532,0.568"
           style="fill:#ffd100;fill-opacity:1;fill-rule:nonzero;stroke:none"
           id="path5794" /><path
           d="m 367.938,460.845 c 0.113,-2.51 0.165,-5.859 0.165,-10.199 0,-16.306 -1.872,-29.431 -6.514,-45.689 -0.602,-2.107 -1.137,-4.555 -1.599,-7.271 l 70.016,16.25 z"
           style="fill:#ffd100;fill-opacity:1;fill-rule:nonzero;stroke:none"
           id="path5796" /><path
           d="m 366.979,466.969 c 0.481,-0.481 0.79,-2.357 0.959,-6.124 l 62.068,-46.909 -33.576,102.39 -36.981,-1.797 c -1.645,-1.134 -3.498,-1.966 -6.363,-3.06 -14.02,-5.359 -25.135,-9.884 -33.87,-13.8 l 42.103,-31.82 c 3.652,1.562 5.013,1.766 5.66,1.12"
           style="fill:#f9ed2d;fill-opacity:1;fill-rule:nonzero;stroke:none"
           id="path5798" /><path
           d="m 275.613,434.362 c 1.206,1.122 6.526,3.62 12.232,5.779 l 8.273,46.075 c -2.75,-1.149 -5.333,-1.954 -8.105,-2.552 -11.67,-2.523 -27.063,-4.847 -28.48,-4.303 -0.884,0.339 -8.627,-3.227 -16.851,-7.426 l 16.063,-44.114 c 9.18,2.406 14.745,4.566 16.868,6.541"
           style="fill:#fd9d00;fill-opacity:1;fill-rule:nonzero;stroke:none"
           id="path5800" /><path
           d="m 226.707,424.203 c 3.793,0.728 5.972,0.709 8.34,-0.075 2.713,-0.894 4.855,-0.688 13.978,1.352 3.602,0.806 6.838,1.585 9.72,2.341 l -16.063,44.114 c -8.606,-4.393 -17.737,-9.479 -20.092,-11.516 -1.282,-1.108 -2.645,-2.059 -4.429,-2.995 l -11.469,-35.337 c 9.29,0.708 16.656,1.471 20.015,2.116"
           style="fill:#ff9300;fill-opacity:1;fill-rule:nonzero;stroke:none"
           id="path5802" /><path
           d="m 485.971,407.954 c 4.366,6.727 5.951,11.037 8.324,20.665 0.883,3.583 2.248,7.951 3.595,11.644 l -67.884,-26.327 z"
           style="fill:#cbf387;fill-opacity:1;fill-rule:nonzero;stroke:none"
           id="path5804" /><path
           d="m 430.006,413.936 -70.016,-16.25 c -0.642,-3.784 -1.141,-8.09 -1.465,-12.75 -0.469,-6.758 -1.135,-15.975 -1.478,-20.479 -0.344,-4.506 -0.628,-9.012 -0.632,-10.012 -0.021,-5.197 1.468,-23.23 2.18,-26.392 0.119,-0.532 0.221,-1.041 0.313,-1.539 l 39.517,-24.94 z"
           style="fill:#ffce00;fill-opacity:1;fill-rule:nonzero;stroke:none"
           id="path5806" /><path
           d="m 490.641,277.711 c -1.457,10.56 -4.569,18.182 -10.556,27.66 -3.447,5.455 -11.439,13.525 -14.388,14.529 -3.206,1.092 -5.753,10.743 -3.549,13.448 1.659,2.031 3.793,10.968 3.723,15.574 -0.025,1.584 -0.328,3.783 -0.766,5.822 l -66.68,-53.17 z"
           style="fill:#f0d03c;fill-opacity:1;fill-rule:nonzero;stroke:none"
           id="path5808" /><path
           d="m 398.425,301.574 66.68,53.17 c -0.265,1.231 -0.578,2.401 -0.91,3.342 l -1.604,4.551 2.731,8.191 c 1.503,4.504 3.634,9.631 4.737,11.389 1.102,1.76 3.099,5.361 4.44,8.002 1.338,2.642 4.819,8.166 7.733,12.275 1.448,2.039 2.674,3.82 3.739,5.46 l -55.965,5.982 z"
           style="fill:#f6e63a;fill-opacity:1;fill-rule:nonzero;stroke:none"
           id="path5810" /><path
           d="m 358.908,326.514 c 0.916,-4.928 0.511,-8.233 -1.269,-10.496 -3.975,-5.057 -4.401,-13.934 -0.822,-17.172 2.442,-2.209 2.219,-3.813 -2.069,-14.776 -2.784,-7.117 -4.399,-12.099 -5.494,-17.674 l 49.171,35.178 z"
           style="fill:#feb200;fill-opacity:1;fill-rule:nonzero;stroke:none"
           id="path5812" /><path
           d="m 674.375,271.863 c -0.061,0.008 -0.123,0.016 -0.183,0.024 l 0.154,-0.233 z"
           style="fill:#b5b995;fill-opacity:1;fill-rule:nonzero;stroke:none"
           id="path5814" /><path
           d="m 674.346,271.654 -0.154,0.233 c -9.129,1.152 -19.955,1.967 -28.046,1.968 -21.454,0.006 -23.621,0.084 -28.495,1.008 -2.372,0.45 -12.637,0.823 -23.254,0.856 l -1.166,-30.992 z"
           style="fill:#c2b266;fill-opacity:1;fill-rule:nonzero;stroke:none"
           id="path5816" /><path
           d="m 594.397,275.719 c -0.504,0 -1.01,0.002 -1.516,0.002 -25.345,0 -23.967,0.715 -24.693,-12.84 -0.22,-4.11 -0.25,-6.99 -0.041,-9.404 l 25.084,-8.75 z"
           style="fill:#d3bf53;fill-opacity:1;fill-rule:nonzero;stroke:none"
           id="path5818" /><path
           d="m 397.76,180.234 93.903,67.723 c 0.152,2.606 0.115,6.076 0.072,11.379 -0.057,7.23 -0.376,13.16 -1.094,18.375 l -92.216,23.863 z"
           style="fill:#fb9b00;fill-opacity:1;fill-rule:nonzero;stroke:none"
           id="path5820" /><path
           d="m 398.425,301.574 -49.171,-35.178 c -0.72,-3.66 -1.215,-7.576 -1.67,-12.519 -0.481,-5.256 -1.398,-12.359 -2.037,-15.785 -0.998,-5.35 -0.92,-12.403 0.281,-21.826 l 51.932,-36.032 z"
           style="fill:#ffa300;fill-opacity:1;fill-rule:nonzero;stroke:none"
           id="path5822" /><path
           d="m 514.776,133.361 1.797,35.067 -2.85,-2.811 -9.356,-3.689 c -5.146,-2.03 -9.708,-3.471 -10.138,-3.205 -1.034,0.64 -1.708,5.582 -2.06,15.103 -0.204,5.487 -0.757,8.492 -1.881,10.207 -1.189,1.813 -1.594,4.317 -1.594,9.858 0,6.058 -0.439,8.408 -2.389,12.752 -2.334,5.203 -2.37,5.568 -1.533,15.586 0.532,6.341 1.433,11.302 2.358,12.99 3.197,5.826 4.234,7.59 4.533,12.738 L 397.76,180.234 Z"
           style="fill:#f56500;fill-opacity:1;fill-rule:nonzero;stroke:none"
           id="path5824" /><path
           d="m 593.231,244.727 91.788,-62.819 c 0.17,2.824 -0.346,4.092 -2.35,7.58 -7.363,12.819 -22.187,21.94 -45.834,28.209 -2.603,0.69 -4.042,1.508 -3.639,2.069 1.597,2.238 15.578,12.675 19.094,14.255 2.127,0.958 3.868,2.079 3.868,2.495 0,1.609 11.343,4.556 23.889,6.431 l -5.701,28.707 z"
           style="fill:#bc5024;fill-opacity:1;fill-rule:nonzero;stroke:none"
           id="path5826" /><path
           d="m 593.231,244.727 -25.084,8.75 c 0.168,-1.938 0.491,-3.573 0.992,-5.297 0.807,-2.778 1.466,-6.522 1.466,-8.323 0,-3.205 -0.074,-3.273 -3.596,-3.273 -4.907,0 -7.801,-1.496 -9.449,-4.887 -2.042,-4.195 -4.483,-14.808 -4.834,-21.023 -0.273,-4.779 -0.639,-5.69 -3.046,-7.574 -1.506,-1.178 -2.738,-2.723 -2.738,-3.434 0,-0.711 -7.474,-8.66 -16.609,-17.67 l -13.76,-13.568 -1.797,-35.067 z"
           style="fill:#e07000;fill-opacity:1;fill-rule:nonzero;stroke:none"
           id="path5828" /><path
           d="m 345.828,216.266 c 0.542,-4.252 1.312,-8.989 2.316,-14.268 3.485,-18.334 5.951,-31.631 7.692,-41.99 l 41.924,20.226 z"
           style="fill:#ff8800;fill-opacity:1;fill-rule:nonzero;stroke:none"
           id="path5830" /><path
           d="m 613.984,164.713 c 10.178,3.982 19.406,6.303 21.819,5.385 1.268,-0.483 2.712,-0.625 3.208,-0.317 0.983,0.608 12.094,-0.853 22.037,-2.9 5.858,-1.205 9.5,-1.58 12.412,-1.008 l 6.718,3.514 c 3.284,2.59 3.89,4.238 4.599,10.09 0.116,0.943 0.2,1.736 0.242,2.431 l -91.788,62.819 z"
           style="fill:#c22c00;fill-opacity:1;fill-rule:nonzero;stroke:none"
           id="path5832" /><path
           d="m 514.776,133.361 29.269,1.377 c 1.34,1.776 2.689,3.576 4.026,5.373 2.735,3.672 3.515,4.149 7.559,4.61 5.436,0.617 11.16,2.976 11.9,4.906 0.329,0.855 1.661,1.406 3.407,1.406 2.273,0 3.1,-0.535 4.012,-2.592 1.189,-2.687 4.373,-4.703 6.352,-4.021 0.624,0.217 1.137,0.771 1.137,1.234 0,1.024 11.75,12.659 12.781,12.659 0.401,0 1.943,1.021 3.426,2.269 2.246,1.891 2.868,2.057 3.742,1.008 0.874,-1.057 2.187,-0.781 8.067,1.691 1.185,0.498 2.363,0.977 3.53,1.432 l -20.753,80.014 z"
           style="fill:#d54200;fill-opacity:1;fill-rule:nonzero;stroke:none"
           id="path5834" /><path
           d="m 397.76,180.234 -41.924,-20.226 c 3.358,-19.973 4.021,-29.024 4.094,-42.194 0.051,-9.302 0.426,-12.044 2.525,-18.478 1.355,-4.156 2.463,-8.326 2.463,-9.27 0,-0.177 0.043,-0.42 0.123,-0.712 l 18.091,-22.811 z"
           style="fill:#ff7200;fill-opacity:1;fill-rule:nonzero;stroke:none"
           id="path5836" /><path
           d="M 514.776,133.361 397.76,180.234 383.132,66.543 Z"
           style="fill:#fc6300;fill-opacity:1;fill-rule:nonzero;stroke:none"
           id="path5838" /><path
           d="m 678.727,168.295 c 0.536,0.389 1.016,0.748 1.451,1.092 l -6.718,-3.514 c 1.932,0.379 3.543,1.176 5.267,2.422"
           style="fill:#be0006;fill-opacity:1;fill-rule:nonzero;stroke:none"
           id="path5840" /><path
           d="m 383.132,66.543 109.264,-0.242 c 4.913,4.459 9.369,9.605 12.354,14.492 5.558,9.098 12.58,19.59 17.368,26.086 l -7.342,26.482 z"
           style="fill:#f23700;fill-opacity:1;fill-rule:nonzero;stroke:none"
           id="path5842" /><path
           d="m 522.118,106.879 c 1.623,2.201 2.99,3.945 3.955,5.017 2.771,3.081 10.207,12.549 17.972,22.842 l -29.269,-1.377 z"
           style="fill:#db2f00;fill-opacity:1;fill-rule:nonzero;stroke:none"
           id="path5844" /><path
           d="m 365.041,89.354 c 0.34,-1.254 1.352,-3.428 2.539,-5.383 1.572,-2.586 3.25,-7.311 4.094,-11.52 0.326,-1.625 0.643,-3.062 0.977,-4.363 l 10.481,-1.545 z"
           style="fill:#fa6800;fill-opacity:1;fill-rule:nonzero;stroke:none"
           id="path5846" /><path
           d="m 385.259,50.105 c 1.153,-0.736 2.345,-1.341 3.591,-1.82 5.661,-2.176 10.005,-2.322 17.934,-0.599 12.019,2.613 30.173,12.043 32.863,17.072 0.949,1.771 1.067,1.744 3.853,-0.897 1.581,-1.498 5.946,-4.5 9.7,-6.672 6.142,-3.55 7.427,-3.949 12.824,-3.97 5.195,-0.022 6.937,0.451 12.957,3.506 4.359,2.213 9.065,5.623 13.415,9.576 l -109.264,0.242 z"
           style="fill:#f24600;fill-opacity:1;fill-rule:nonzero;stroke:none"
           id="path5848" /><path
           d="m 372.651,68.088 c 1.141,-4.455 2.462,-7.297 4.866,-10.442 l 5.615,8.897 z"
           style="fill:#f55e00;fill-opacity:1;fill-rule:nonzero;stroke:none"
           id="path5850" /><path
           d="m 377.517,57.646 c 0.746,-0.976 1.596,-1.982 2.578,-3.074 1.653,-1.838 3.36,-3.314 5.164,-4.467 l -2.127,16.438 z"
           style="fill:#f15700;fill-opacity:1;fill-rule:nonzero;stroke:none"
           id="path5852" /></g></g></g></svg>
